<svg width="16" height="16" viewBox="0 0 16 16" fill="none" xmlns="http://www.w3.org/2000/svg">
<path fill-rule="evenodd" clip-rule="evenodd" d="M9.33333 2.00001C9.33333 1.63182 9.63181 1.33334 9.99999 1.33334H12.6667C13.1971 1.33334 13.7058 1.54406 14.0809 1.91913C14.4559 2.2942 14.6667 2.80291 14.6667 3.33334V12.6667C14.6667 13.1971 14.4559 13.7058 14.0809 14.0809C13.7058 14.456 13.1971 14.6667 12.6667 14.6667H9.99999C9.63181 14.6667 9.33333 14.3682 9.33333 14C9.33333 13.6318 9.63181 13.3333 9.99999 13.3333H12.6667C12.8435 13.3333 13.013 13.2631 13.1381 13.1381C13.2631 13.0131 13.3333 12.8435 13.3333 12.6667V3.33334C13.3333 3.15653 13.2631 2.98696 13.1381 2.86194C13.013 2.73691 12.8435 2.66668 12.6667 2.66668H9.99999C9.63181 2.66668 9.33333 2.3682 9.33333 2.00001Z" fill="white"/>
<path fill-rule="evenodd" clip-rule="evenodd" d="M6.19526 4.19526C6.45561 3.93491 6.87772 3.93491 7.13807 4.19526L10.4714 7.5286C10.7318 7.78894 10.7318 8.21106 10.4714 8.4714L7.13807 11.8047C6.87772 12.0651 6.45561 12.0651 6.19526 11.8047C5.93491 11.5444 5.93491 11.1223 6.19526 10.8619L9.05719 8L6.19526 5.13807C5.93491 4.87772 5.93491 4.45561 6.19526 4.19526Z" fill="white"/>
<path fill-rule="evenodd" clip-rule="evenodd" d="M1.33333 8.00001C1.33333 7.63182 1.63181 7.33334 1.99999 7.33334H10C10.3682 7.33334 10.6667 7.63182 10.6667 8.00001C10.6667 8.3682 10.3682 8.66668 10 8.66668H1.99999C1.63181 8.66668 1.33333 8.3682 1.33333 8.00001Z" fill="white"/>
</svg>
