<svg viewBox="0 0 24 24" fill="none" xmlns="http://www.w3.org/2000/svg">
<path d="M2.06547 11.183H21.9344C22.164 11.183 22.3841 11.2742 22.5464 11.4365C22.7087 11.5988 22.7999 11.819 22.7999 12.0485V21.9345C22.7999 22.0481 22.7776 22.1607 22.7341 22.2657C22.6906 22.3707 22.6268 22.4661 22.5464 22.5465C22.4661 22.6269 22.3706 22.6906 22.2656 22.7341C22.1606 22.7776 22.0481 22.8 21.9344 22.8H2.06547C1.95181 22.8 1.83926 22.7776 1.73425 22.7341C1.62924 22.6906 1.53382 22.6269 1.45345 22.5465C1.37308 22.4661 1.30932 22.3707 1.26583 22.2657C1.22233 22.1607 1.19994 22.0481 1.19994 21.9345V12.0485C1.19994 11.819 1.29113 11.5988 1.45345 11.4365C1.61577 11.2742 1.83592 11.183 2.06547 11.183ZM18.1695 20.2826C18.1695 20.4884 18.2512 20.6858 18.3968 20.8314C18.5424 20.977 18.7398 21.0587 18.9456 21.0587C19.1515 21.0587 19.3489 20.977 19.4945 20.8314C19.64 20.6858 19.7218 20.4884 19.7218 20.2826V13.7004C19.7218 13.4946 19.64 13.2972 19.4945 13.1516C19.3489 13.006 19.1515 12.9243 18.9456 12.9243C18.7398 12.9243 18.5424 13.006 18.3968 13.1516C18.2512 13.2972 18.1695 13.4946 18.1695 13.7004V20.2826ZM13.539 20.2826C13.539 20.4884 13.6208 20.6858 13.7663 20.8314C13.9119 20.977 14.1093 21.0587 14.3152 21.0587C14.521 21.0587 14.7185 20.977 14.864 20.8314C15.0096 20.6858 15.0914 20.4884 15.0914 20.2826V13.7004C15.0914 13.4946 15.0096 13.2972 14.864 13.1516C14.7185 13.006 14.521 12.9243 14.3152 12.9243C14.1093 12.9243 13.9119 13.006 13.7663 13.1516C13.6208 13.2972 13.539 13.4946 13.539 13.7004V20.2826ZM8.90854 20.2826C8.90854 20.4884 8.99031 20.6858 9.13587 20.8314C9.28143 20.977 9.47886 21.0587 9.68471 21.0587C9.89056 21.0587 10.088 20.977 10.2335 20.8314C10.3791 20.6858 10.4609 20.4884 10.4609 20.2826V13.7004C10.4609 13.4946 10.3791 13.2972 10.2335 13.1516C10.088 13.006 9.89056 12.9243 9.68471 12.9243C9.47886 12.9243 9.28143 13.006 9.13587 13.1516C8.99031 13.2972 8.90854 13.4946 8.90854 13.7004V20.2826ZM4.27808 20.2826C4.27808 20.4884 4.35985 20.6858 4.50541 20.8314C4.65097 20.977 4.8484 21.0587 5.05425 21.0587C5.2601 21.0587 5.45752 20.977 5.60308 20.8314C5.74864 20.6858 5.83042 20.4884 5.83042 20.2826V13.7004C5.83042 13.4946 5.74864 13.2972 5.60308 13.1516C5.45752 13.006 5.2601 12.9243 5.05425 12.9243C4.8484 12.9243 4.65097 13.006 4.50541 13.1516C4.35985 13.2972 4.27808 13.4946 4.27808 13.7004V20.2826ZM11.52 3.47745V4.09759C11.5173 4.18758 11.4885 4.27484 11.4371 4.34877C11.3858 4.42271 11.314 4.48014 11.2307 4.51407C10.9905 4.62237 10.7761 4.78066 10.602 4.97838C10.4278 5.17609 10.2978 5.40869 10.2207 5.66064C10.1436 5.91258 10.1211 6.17808 10.1547 6.43941C10.1884 6.70074 10.2774 6.95188 10.4158 7.17608L4.87148 10.223H6.56559L11.0119 7.77956C11.2865 7.95464 11.6026 8.05374 11.928 8.06673C11.9525 8.06767 11.977 8.06814 12.0014 8.06814C12.352 8.06887 12.6955 7.96947 12.9915 7.78164L17.4342 10.223H19.1283L13.586 7.17725C13.7656 6.88585 13.8605 6.5502 13.8601 6.2079C13.8601 6.0806 13.8095 5.95851 13.7195 5.86849C13.6295 5.77847 13.5074 5.7279 13.3801 5.7279C13.2528 5.7279 13.1307 5.77847 13.0407 5.86849C12.9507 5.95851 12.9001 6.0806 12.9001 6.2079C12.9004 6.39487 12.8418 6.57717 12.7326 6.72894C12.263 6.54549 11.7417 6.54494 11.2718 6.72739C11.168 6.58658 11.1084 6.41809 11.1005 6.24331C11.0931 6.06443 11.1394 5.88744 11.2333 5.73505C11.3273 5.58266 11.4647 5.46183 11.6278 5.38808C11.8785 5.2771 12.092 5.09651 12.2431 4.86776C12.3941 4.639 12.4764 4.3717 12.48 4.09759V3.47745H12.6803C12.8535 3.47745 13.0249 3.44335 13.1848 3.3771C13.3448 3.31085 13.4901 3.21375 13.6125 3.09134C13.7349 2.96892 13.832 2.8236 13.8983 2.66366C13.9645 2.50372 13.9986 2.33229 13.9986 2.15918V1.33386C13.9986 1.31628 13.9952 1.29887 13.9884 1.28263C13.9817 1.26639 13.9718 1.25164 13.9594 1.23921C13.947 1.22678 13.9322 1.21692 13.916 1.2102C13.8997 1.20347 13.8823 1.20001 13.8648 1.20001H10.1351C10.1175 1.20001 10.1001 1.20347 10.0839 1.2102C10.0677 1.21692 10.0529 1.22678 10.0405 1.23921C10.028 1.25164 10.0182 1.26639 10.0115 1.28263C10.0047 1.29887 10.0013 1.31628 10.0013 1.33386V2.15918C10.0013 2.33229 10.0354 2.50372 10.1016 2.66366C10.1679 2.8236 10.265 2.96892 10.3874 3.09134C10.5098 3.21375 10.6551 3.31085 10.8151 3.3771C10.975 3.44335 11.1464 3.47745 11.3195 3.47745H11.52Z" fill="#A3C86B"/>
</svg>
