<svg id="Outline" height="17" viewBox="0 0 512 512" width="16"  fill="#4489C9"  xmlns="http://www.w3.org/2000/svg"><path d="m64 16a8 8 0 0 0 -8 8v464a8 8 0 0 0 8 8h384a8 8 0 0 0 8-8v-432a40.045 40.045 0 0 0 -40-40zm376 464h-368v-448h304a16.019 16.019 0 0 1 16 16v40a8 8 0 0 0 8 8h40zm0-424v24h-32v-32a31.793 31.793 0 0 0 -4.3-16h12.3a24.028 24.028 0 0 1 24 24z"/><path d="m184 128h24a8 8 0 0 0 0-16h-64a8 8 0 0 0 0 16h24v72a8 8 0 0 0 16 0z"/><path d="m312 199.989a8 8 0 0 0 14.861 4.127l17.139-28.566 17.14 28.566a8 8 0 1 0 13.72-8.232l-21.53-35.884 21.53-35.884a8 8 0 0 0 -13.72-8.232l-17.14 28.566-17.14-28.566a8 8 0 1 0 -13.72 8.232l21.53 35.884-21.53 35.884a7.951 7.951 0 0 0 -1.14 4.105z"/><path d="m152 72a8 8 0 0 0 0-16h-48a8 8 0 0 0 0 16z"/><path d="m144 240h-32a8 8 0 0 0 0 16h32a8 8 0 0 0 0-16z"/><path d="m320 240h-128a8 8 0 0 0 0 16h128a8 8 0 0 0 0-16z"/><path d="m384 240a8 8 0 0 0 0 16h16a8 8 0 0 0 0-16z"/><path d="m144 272h-32a8 8 0 0 0 0 16h32a8 8 0 0 0 0-16z"/><path d="m320 272h-128a8 8 0 0 0 0 16h128a8 8 0 0 0 0-16z"/><path d="m400 272h-16a8 8 0 0 0 0 16h16a8 8 0 0 0 0-16z"/><path d="m144 304h-32a8 8 0 0 0 0 16h32a8 8 0 0 0 0-16z"/><path d="m320 304h-128a8 8 0 0 0 0 16h128a8 8 0 0 0 0-16z"/><path d="m400 304h-16a8 8 0 0 0 0 16h16a8 8 0 0 0 0-16z"/><path d="m144 336h-32a8 8 0 0 0 0 16h32a8 8 0 0 0 0-16z"/><path d="m320 336h-128a8 8 0 0 0 0 16h128a8 8 0 0 0 0-16z"/><path d="m400 336h-16a8 8 0 0 0 0 16h16a8 8 0 0 0 0-16z"/><path d="m144 368h-32a8 8 0 0 0 0 16h32a8 8 0 0 0 0-16z"/><path d="m328 376a8 8 0 0 0 -8-8h-128a8 8 0 0 0 0 16h128a8 8 0 0 0 8-8z"/><path d="m400 368h-16a8 8 0 0 0 0 16h16a8 8 0 0 0 0-16z"/><path d="m344 424a8 8 0 0 0 8 8h64a8 8 0 0 0 0-16h-64a8 8 0 0 0 -8 8z"/><path d="m416 448h-128a8 8 0 0 0 0 16h128a8 8 0 0 0 0-16z"/><path d="m295.428 197.029-32-80a8 8 0 0 0 -14.856 0l-32 80a8 8 0 0 0 14.856 5.942l10.788-26.971h27.568l10.788 26.971a8 8 0 0 0 14.856-5.942zm-46.812-37.029 7.384-18.459 7.384 18.459z"/></svg>
