<svg width="16" height="17" viewBox="0 0 16 17" fill="none" xmlns="http://www.w3.org/2000/svg">
<rect width="16" height="16.0129" transform="translate(0 0.255642)" fill="white"/>
<path fill-rule="evenodd" clip-rule="evenodd" d="M11.351 1.34752C12.1574 1.51201 12.9038 1.89337 13.5099 2.45059C14.116 3.0078 14.5589 3.71981 14.791 4.51007C15.006 5.23465 15.038 6.00127 14.884 6.74187C14.6614 7.75653 14.1012 8.66551 13.2952 9.32003C12.4891 9.97456 11.485 10.3358 10.447 10.3448C10.009 10.3448 9.573 10.2817 9.154 10.1546L8.354 11.0934L7.975 11.2685H7V12.7697L6.5 13.2701H5V14.7713L4.5 15.2717H1.5L1 14.7713V12.4625L1.146 12.1092L6.12 7.13118C5.97884 6.67614 5.91132 6.20143 5.92 5.72505C5.92911 5.05855 6.08503 4.40226 6.37663 3.80298C6.66824 3.2037 7.08835 2.67618 7.60702 2.25802C8.12569 1.83987 8.73014 1.54137 9.3773 1.38382C10.0245 1.22626 10.6984 1.21353 11.351 1.34652V1.34752ZM12.669 8.55333C13.2972 8.04423 13.734 7.33673 13.908 6.54671L13.912 6.55171C14.0359 5.97405 14.0136 5.37456 13.8471 4.80771C13.6807 4.24086 13.3753 3.72463 12.9588 3.30591C12.5424 2.88719 12.0279 2.57927 11.4623 2.41011C10.8967 2.24096 10.2978 2.21593 9.72 2.33732C8.94078 2.51041 8.24183 2.93942 7.73442 3.55606C7.22701 4.17269 6.94032 4.9415 6.92 5.74006C6.91 6.19643 6.99 6.64879 7.159 7.07113L7.049 7.61457L2 12.6696V14.2709H4V12.7697L4.5 12.2693H6V10.7681L6.5 10.2677H7.745L8.621 9.25089L9.182 9.11078C9.58639 9.26893 10.0168 9.34972 10.451 9.34897C11.259 9.34277 12.041 9.06225 12.669 8.55333V8.55333ZM11.831 5.81912C11.9098 5.71009 11.9659 5.58625 11.9958 5.45503C12.0257 5.32381 12.0289 5.18789 12.0051 5.05542C11.9813 4.92294 11.9311 4.79663 11.8574 4.68403C11.7837 4.57144 11.6881 4.47488 11.5763 4.40012C11.4644 4.32537 11.3387 4.27396 11.2065 4.24897C11.0744 4.22398 10.9386 4.22593 10.8072 4.2547C10.6758 4.28346 10.5516 4.33845 10.4419 4.41638C10.3323 4.49431 10.2394 4.59357 10.169 4.70823C10.0335 4.92879 9.9887 5.19333 10.044 5.44626C10.0993 5.69919 10.2504 5.92084 10.4655 6.06464C10.6806 6.20844 10.9431 6.2632 11.1977 6.21742C11.4523 6.17164 11.6793 6.02888 11.831 5.81912V5.81912Z" fill="#4489C9"/>
</svg>
