<svg width="16" height="16" viewBox="0 0 16 16" fill="none" xmlns="http://www.w3.org/2000/svg">
<path fill-rule="evenodd" clip-rule="evenodd" d="M0.976311 10.3097C1.60143 9.68453 2.44928 9.33334 3.33333 9.33334H8C8.88406 9.33334 9.7319 9.68453 10.357 10.3097C10.9821 10.9348 11.3333 11.7826 11.3333 12.6667V14C11.3333 14.3682 11.0349 14.6667 10.6667 14.6667C10.2985 14.6667 10 14.3682 10 14V12.6667C10 12.1362 9.78929 11.6275 9.41421 11.2525C9.03914 10.8774 8.53043 10.6667 8 10.6667H3.33333C2.8029 10.6667 2.29419 10.8774 1.91912 11.2525C1.54405 11.6275 1.33333 12.1362 1.33333 12.6667V14C1.33333 14.3682 1.03486 14.6667 0.666667 14.6667C0.298477 14.6667 0 14.3682 0 14V12.6667C0 11.7826 0.35119 10.9348 0.976311 10.3097Z" fill="#4489C9"/>
<path fill-rule="evenodd" clip-rule="evenodd" d="M5.66667 2.66668C4.5621 2.66668 3.66667 3.56211 3.66667 4.66668C3.66667 5.77125 4.5621 6.66668 5.66667 6.66668C6.77124 6.66668 7.66667 5.77125 7.66667 4.66668C7.66667 3.56211 6.77124 2.66668 5.66667 2.66668ZM2.33333 4.66668C2.33333 2.82573 3.82572 1.33334 5.66667 1.33334C7.50762 1.33334 9 2.82573 9 4.66668C9 6.50763 7.50762 8.00001 5.66667 8.00001C3.82572 8.00001 2.33333 6.50763 2.33333 4.66668Z" fill="#4489C9"/>
<path fill-rule="evenodd" clip-rule="evenodd" d="M13.3333 4.66668C13.7015 4.66668 14 4.96515 14 5.33334V9.33334C14 9.70153 13.7015 10 13.3333 10C12.9651 10 12.6667 9.70153 12.6667 9.33334V5.33334C12.6667 4.96515 12.9651 4.66668 13.3333 4.66668Z" fill="#4489C9"/>
<path fill-rule="evenodd" clip-rule="evenodd" d="M10.6667 7.33334C10.6667 6.96515 10.9651 6.66668 11.3333 6.66668H15.3333C15.7015 6.66668 16 6.96515 16 7.33334C16 7.70153 15.7015 8.00001 15.3333 8.00001H11.3333C10.9651 8.00001 10.6667 7.70153 10.6667 7.33334Z" fill="#4489C9"/>
</svg>
