<svg width="16" height="16" viewBox="0 0 16 16" fill="none" xmlns="http://www.w3.org/2000/svg">
<path d="M7.99967 1.33334C4.38567 1.33334 1.33301 4.386 1.33301 8C1.33301 10.126 2.39434 12.052 3.99967 13.2827V13.3333H4.06767C5.17967 14.1633 6.54167 14.6667 7.99967 14.6667C9.45767 14.6667 10.8197 14.1633 11.9317 13.3333H11.9997V13.2827C13.605 12.052 14.6663 10.1267 14.6663 8C14.6663 4.386 11.6137 1.33334 7.99967 1.33334ZM5.38234 12.618C5.48058 12.1736 5.72737 11.776 6.08199 11.4907C6.4366 11.2054 6.87787 11.0495 7.33301 11.0487H8.66634C9.12144 11.0496 9.56265 11.2055 9.91725 11.4908C10.2718 11.7761 10.5187 12.1737 10.617 12.618C9.83834 13.0693 8.94367 13.3333 7.99967 13.3333C7.05567 13.3333 6.16101 13.0693 5.38234 12.618ZM11.7397 11.7607C11.4854 11.1552 11.0582 10.6383 10.5115 10.2745C9.96483 9.91066 9.323 9.71616 8.66634 9.71534H7.33301C6.67635 9.71616 6.03452 9.91066 5.48785 10.2745C4.94119 10.6383 4.51397 11.1552 4.25967 11.7607C3.28167 10.788 2.66634 9.45067 2.66634 8C2.66634 5.10867 5.10834 2.66667 7.99967 2.66667C10.891 2.66667 13.333 5.10867 13.333 8C13.333 9.45067 12.7177 10.788 11.7397 11.7607Z" fill="#4489C9"/>
<path d="M7.99967 4C6.47967 4 5.33301 5.14667 5.33301 6.66667C5.33301 8.18667 6.47967 9.33333 7.99967 9.33333C9.51967 9.33333 10.6663 8.18667 10.6663 6.66667C10.6663 5.14667 9.51967 4 7.99967 4ZM7.99967 8C7.21434 8 6.66634 7.452 6.66634 6.66667C6.66634 5.88133 7.21434 5.33333 7.99967 5.33333C8.78501 5.33333 9.33301 5.88133 9.33301 6.66667C9.33301 7.452 8.78501 8 7.99967 8Z" fill="#4489C9"/>
</svg>
