<svg width="36" height="36" viewBox="0 0 36 36" fill="none" xmlns="http://www.w3.org/2000/svg">
<path fill-rule="evenodd" clip-rule="evenodd" d="M18 0C8.05888 0 0 8.05888 0 18C0 27.9411 8.05888 36 18 36C27.9411 36 36 27.9411 36 18C36 8.05888 27.9411 0 18 0ZM14.0425 8.45815C15.0665 8.41155 15.3937 8.40015 18.001 8.40015H17.998C20.606 8.40015 20.932 8.41155 21.956 8.45815C22.978 8.50495 23.676 8.66675 24.288 8.90415C24.92 9.14915 25.454 9.47716 25.988 10.0112C26.522 10.5448 26.85 11.0804 27.0961 11.7118C27.3321 12.3222 27.4941 13.0198 27.5421 14.0418C27.5881 15.0658 27.6001 15.393 27.6001 18.0002C27.6001 20.6075 27.5881 20.9339 27.5421 21.9579C27.4941 22.9795 27.3321 23.6773 27.0961 24.2879C26.85 24.9191 26.522 25.4547 25.988 25.9883C25.4546 26.5223 24.9198 26.8511 24.2886 27.0963C23.6778 27.3337 22.9794 27.4955 21.9574 27.5423C20.9334 27.5889 20.6072 27.6003 17.9998 27.6003C15.3927 27.6003 15.0657 27.5889 14.0417 27.5423C13.0199 27.4955 12.3221 27.3337 11.7113 27.0963C11.0803 26.8511 10.5447 26.5223 10.0113 25.9883C9.47747 25.4547 9.14946 24.9191 8.90406 24.2877C8.66686 23.6773 8.50506 22.9797 8.45806 21.9577C8.41166 20.9337 8.40006 20.6075 8.40006 18.0002C8.40006 15.393 8.41206 15.0656 8.45786 14.0416C8.50386 13.02 8.66586 12.3222 8.90386 11.7116C9.14986 11.0804 9.47787 10.5448 10.0119 10.0112C10.5455 9.47736 11.0811 9.14935 11.7125 8.90415C12.3229 8.66675 13.0205 8.50495 14.0425 8.45815Z" fill="#4489C9"/>
<path fill-rule="evenodd" clip-rule="evenodd" d="M17.1397 10.1296C17.307 10.1293 17.4868 10.1294 17.681 10.1295L18.0009 10.1296C20.5642 10.1296 20.868 10.1388 21.8802 10.1848C22.8162 10.2276 23.3242 10.384 23.6626 10.5154C24.1106 10.6894 24.43 10.8974 24.7658 11.2334C25.1018 11.5694 25.3098 11.8894 25.4842 12.3374C25.6156 12.6754 25.7722 13.1834 25.8148 14.1194C25.8608 15.1314 25.8708 15.4355 25.8708 17.9975C25.8708 20.5595 25.8608 20.8635 25.8148 21.8755C25.772 22.8115 25.6156 23.3195 25.4842 23.6575C25.3102 24.1055 25.1018 24.4245 24.7658 24.7603C24.4298 25.0964 24.1108 25.3044 23.6626 25.4784C23.3246 25.6104 22.8162 25.7664 21.8802 25.8092C20.8682 25.8552 20.5642 25.8652 18.0009 25.8652C15.4375 25.8652 15.1337 25.8552 14.1217 25.8092C13.1857 25.766 12.6777 25.6096 12.3391 25.4782C11.8911 25.3042 11.5711 25.0962 11.2351 24.7601C10.8991 24.4241 10.6911 24.1049 10.5167 23.6567C10.3853 23.3187 10.2287 22.8107 10.1861 21.8747C10.1401 20.8627 10.1309 20.5587 10.1309 17.9951C10.1309 15.4315 10.1401 15.129 10.1861 14.117C10.2289 13.181 10.3853 12.673 10.5167 12.3346C10.6907 11.8866 10.8991 11.5666 11.2351 11.2306C11.5711 10.8946 11.8911 10.6866 12.3391 10.5122C12.6775 10.3802 13.1857 10.2242 14.1217 10.1812C15.0073 10.1412 15.3505 10.1292 17.1397 10.1272V10.1296ZM23.1254 11.7239C22.4894 11.7239 21.9734 12.2393 21.9734 12.8755C21.9734 13.5115 22.4894 14.0275 23.1254 14.0275C23.7614 14.0275 24.2774 13.5115 24.2774 12.8755C24.2774 12.2395 23.7614 11.7235 23.1254 11.7235V11.7239ZM13.0709 18.0001C13.0709 15.2775 15.2784 13.0701 18.001 13.0701H18.0008C20.7234 13.0701 22.9302 15.2775 22.9302 18.0001C22.9302 20.7227 20.7236 22.9292 18.001 22.9292C15.2784 22.9292 13.0709 20.7227 13.0709 18.0001Z" fill="#4489C9"/>
<path fill-rule="evenodd" clip-rule="evenodd" d="M18.0009 14.7998C19.7681 14.7998 21.2009 16.2324 21.2009 17.9998C21.2009 19.7671 19.7681 21.1999 18.0009 21.1999C16.2335 21.1999 14.8009 19.7671 14.8009 17.9998C14.8009 16.2324 16.2335 14.7998 18.0009 14.7998V14.7998Z" fill="#4489C9"/>
</svg>
