<svg width="36" height="36" viewBox="0 0 36 36" fill="none" xmlns="http://www.w3.org/2000/svg">
<path fill-rule="evenodd" clip-rule="evenodd" d="M18 0C8.05888 0 0 8.05888 0 18C0 27.9411 8.05888 36 18 36C27.9411 36 36 27.9411 36 18C36 8.05888 27.9411 0 18 0ZM17.4987 15.2538L17.4609 14.6309C17.3476 13.0166 18.3423 11.5421 19.9161 10.9701C20.4953 10.7668 21.4773 10.7413 22.1195 10.9193C22.3713 10.9956 22.8497 11.2498 23.1897 11.4786L23.8066 11.898L24.4865 11.682C24.8642 11.5676 25.3678 11.3769 25.5945 11.2498C25.8085 11.1354 25.9974 11.0718 25.9974 11.11C25.9974 11.326 25.5315 12.0633 25.1412 12.47C24.6124 13.042 24.7635 13.0929 25.8337 12.7116C26.4758 12.4955 26.4884 12.4955 26.3625 12.737C26.2869 12.8641 25.8966 13.309 25.4811 13.7157C24.7761 14.4148 24.7383 14.4911 24.7383 15.0758C24.7383 15.9783 24.3102 17.8595 23.8821 18.8891C23.0889 20.8212 21.3892 22.8168 19.6895 23.821C17.2972 25.2319 14.1118 25.5878 11.43 24.7616C10.5361 24.482 9.00002 23.7701 9.00002 23.643C9.00002 23.6049 9.46587 23.5541 10.0324 23.5414C11.216 23.5159 12.3995 23.1854 13.4067 22.6007L14.0866 22.194L13.306 21.9271C12.198 21.5457 11.2034 20.6687 10.9516 19.8424C10.876 19.5755 10.9012 19.5628 11.6063 19.5628L12.3365 19.5501L11.7196 19.2577C10.9893 18.8891 10.322 18.2663 9.99468 17.6307C9.75546 17.1731 9.45328 16.0164 9.54141 15.9274C9.5666 15.8893 9.831 15.9656 10.1332 16.0673C11.0019 16.385 11.1152 16.3088 10.6116 15.7749C9.66732 14.8089 9.37774 13.3725 9.831 12.0124L10.045 11.4023L10.876 12.2285C12.5758 13.8937 14.5777 14.8851 16.8692 15.1775L17.4987 15.2538Z" fill="#4489C9"/>
</svg>
