<svg width="16" height="17" viewBox="0 0 16 17" fill="none" xmlns="http://www.w3.org/2000/svg">
<path d="M14.5372 7.16347H14.0002V7.13578H8.00016V9.80459H11.7678C11.2182 11.3582 9.74116 12.4734 8.00016 12.4734C5.79116 12.4734 4.00016 10.681 4.00016 8.47019C4.00016 6.2594 5.79116 4.46696 8.00016 4.46696C9.01983 4.46696 9.9475 4.85194 10.6538 5.48078L12.5395 3.59359C11.3488 2.48303 9.75616 1.79814 8.00016 1.79814C4.3185 1.79814 1.3335 4.78555 1.3335 8.47019C1.3335 12.1548 4.3185 15.1422 8.00016 15.1422C11.6818 15.1422 14.6668 12.1548 14.6668 8.47019C14.6668 8.02282 14.6208 7.58614 14.5372 7.16347Z" fill="#FFC107"/>
<path d="M2.10205 5.36468L4.29238 6.97231C4.88505 5.50379 6.32038 4.46696 8.00005 4.46696C9.01972 4.46696 9.94738 4.85194 10.6537 5.48078L12.5394 3.59359C11.3487 2.48303 9.75605 1.79814 8.00005 1.79814C5.43938 1.79814 3.21872 3.24497 2.10205 5.36468Z" fill="#FF3D00"/>
<path d="M7.99994 15.1422C9.72194 15.1422 11.2866 14.4827 12.4696 13.4102L10.4063 11.6628C9.71446 12.1893 8.86909 12.4741 7.99994 12.4734C6.26594 12.4734 4.79361 11.3668 4.23894 9.8226L2.06494 11.499C3.16827 13.6597 5.40894 15.1422 7.99994 15.1422Z" fill="#4CAF50"/>
<path d="M14.537 7.16346H14V7.13577H8V9.80459H11.7677C11.5047 10.544 11.0311 11.1901 10.4053 11.6631L10.4063 11.6624L12.4697 13.4098C12.3237 13.5426 14.6667 11.8062 14.6667 8.47018C14.6667 8.02282 14.6207 7.58614 14.537 7.16346Z" fill="#1976D2"/>
</svg>
