<svg width="16" height="17" viewBox="0 0 16 17" fill="none" xmlns="http://www.w3.org/2000/svg">
<g clip-path="url(#clip0)">
<path d="M13.6318 14.0554H11.2611V10.3398C11.2611 9.45374 11.2453 8.31313 10.0281 8.31313C8.79334 8.31313 8.6044 9.27853 8.6044 10.2753V14.0552H6.23377V6.41429H8.50959V7.4585H8.54146C8.76922 7.06875 9.09833 6.74812 9.49376 6.53077C9.88919 6.31341 10.3361 6.20745 10.787 6.2242C13.1898 6.2242 13.6328 7.80597 13.6328 9.86376L13.6318 14.0554V14.0554ZM3.55877 5.36988C2.79896 5.37001 2.1829 4.75364 2.18277 3.99321C2.18265 3.23278 2.79846 2.61622 3.55827 2.6161C4.31809 2.61591 4.93415 3.23228 4.93427 3.99271C4.93434 4.35788 4.78946 4.70812 4.53151 4.96639C4.27355 5.22466 3.92365 5.3698 3.55877 5.36988V5.36988ZM4.74415 14.0555H2.37096V6.41429H4.74409V14.0554L4.74415 14.0555ZM14.8136 0.412634H1.17971C0.535336 0.405378 0.00689844 0.921982 -0.000976562 1.56688V15.2687C0.00664844 15.9139 0.535023 16.4311 1.17965 16.4243H14.8136C15.4596 16.4323 15.9901 15.9152 15.999 15.2687V1.56581C15.9898 0.919668 15.4593 0.403126 14.8136 0.411571" fill="#4489C9"/>
</g>
<defs>
<clipPath id="clip0">
<rect width="16" height="16.0129" fill="white" transform="translate(0 0.412094)"/>
</clipPath>
</defs>
</svg>
