<svg id="Icons" height="17" viewBox="0 0 74 74" width="16" fill="#4489C9" xmlns="http://www.w3.org/2000/svg"><path d="m21.661 72h-18.661a1 1 0 0 1 -1-1v-51.05a1 1 0 0 1 1-1h18.661a1 1 0 0 1 1 1v51.05a1 1 0 0 1 -1 1zm-17.661-2h16.661v-49.05h-16.661z"/><path d="m71 72h-18.661a1 1 0 0 1 -1-1v-36.427a1 1 0 0 1 1-1h18.661a1 1 0 0 1 1 1v36.427a1 1 0 0 1 -1 1zm-17.661-2h16.661v-34.427h-16.661z"/><path d="m52.339 72h-30.678a1 1 0 0 1 -1-1v-68a1 1 0 0 1 1-1h30.678a1 1 0 0 1 1 1v68a1 1 0 0 1 -1 1zm-29.678-2h28.678v-66h-28.678z"/><path d="m44.749 72h-15.5a1 1 0 0 1 -1-1v-23.643a1 1 0 0 1 1-1h15.5a1 1 0 0 1 1 1v23.643a1 1 0 0 1 -1 1zm-14.5-2h13.5v-21.643h-13.5z"/><path d="m15.5 36.559h-6.336a1 1 0 0 1 -1-1v-6.334a1 1 0 0 1 1-1h6.336a1 1 0 0 1 1 1v6.334a1 1 0 0 1 -1 1zm-5.333-2h4.333v-4.334h-4.336z"/><path d="m15.5 49.642h-6.336a1 1 0 0 1 -1-1v-6.333a1 1 0 0 1 1-1h6.336a1 1 0 0 1 1 1v6.333a1 1 0 0 1 -1 1zm-5.333-2h4.333v-4.333h-4.336z"/><path d="m15.5 62.725h-6.336a1 1 0 0 1 -1-1v-6.333a1 1 0 0 1 1-1h6.336a1 1 0 0 1 1 1v6.333a1 1 0 0 1 -1 1zm-5.333-2h4.333v-4.333h-4.336z"/><path d="m64.836 49.642h-6.336a1 1 0 0 1 -1-1v-6.333a1 1 0 0 1 1-1h6.333a1 1 0 0 1 1 1v6.333a1 1 0 0 1 -.997 1zm-5.333-2h4.333v-4.333h-4.336z"/><path d="m64.836 62.725h-6.336a1 1 0 0 1 -1-1v-6.333a1 1 0 0 1 1-1h6.333a1 1 0 0 1 1 1v6.333a1 1 0 0 1 -.997 1zm-5.333-2h4.333v-4.333h-4.336z"/><path d="m33.6 15.971h-6.335a1 1 0 0 1 -1-1v-6.333a1 1 0 0 1 1-1h6.335a1 1 0 0 1 1 1v6.333a1 1 0 0 1 -1 1zm-5.333-2h4.333v-4.333h-4.335z"/><path d="m33.6 29.055h-6.335a1 1 0 0 1 -1-1v-6.334a1 1 0 0 1 1-1h6.335a1 1 0 0 1 1 1v6.334a1 1 0 0 1 -1 1zm-5.333-2h4.333v-4.334h-4.335z"/><path d="m33.6 42.138h-6.335a1 1 0 0 1 -1-1v-6.333a1 1 0 0 1 1-1h6.335a1 1 0 0 1 1 1v6.333a1 1 0 0 1 -1 1zm-5.333-2h4.333v-4.333h-4.335z"/><path d="m46.735 15.971h-6.335a1 1 0 0 1 -1-1v-6.333a1 1 0 0 1 1-1h6.333a1 1 0 0 1 1 1v6.333a1 1 0 0 1 -.998 1zm-5.333-2h4.333v-4.333h-4.335z"/><path d="m46.735 29.055h-6.335a1 1 0 0 1 -1-1v-6.334a1 1 0 0 1 1-1h6.333a1 1 0 0 1 1 1v6.334a1 1 0 0 1 -.998 1zm-5.333-2h4.333v-4.334h-4.335z"/><path d="m46.735 42.138h-6.335a1 1 0 0 1 -1-1v-6.333a1 1 0 0 1 1-1h6.333a1 1 0 0 1 1 1v6.333a1 1 0 0 1 -.998 1zm-5.333-2h4.333v-4.333h-4.335z"/></svg>
