<svg width="36" height="36" viewBox="0 0 36 36" fill="none" xmlns="http://www.w3.org/2000/svg">
<path fill-rule="evenodd" clip-rule="evenodd" d="M18 0C8.05888 0 0 8.05888 0 18C0 27.9411 8.05888 36 18 36C27.9411 36 36 27.9411 36 18C36 8.05888 27.9411 0 18 0ZM8.6413 14.9084H12.7205V27.1647H8.6413V14.9084ZM12.9891 11.117C12.9627 9.9153 12.1033 9 10.7078 9C9.31236 9 8.40005 9.9153 8.40005 11.117C8.40005 12.2939 9.2854 13.2355 10.6549 13.2355H10.6809C12.1033 13.2355 12.9891 12.2939 12.9891 11.117ZM22.7349 14.6206C25.4192 14.6206 27.4316 16.3727 27.4316 20.1373L27.4314 27.1647H23.3524V20.6076C23.3524 18.9606 22.7621 17.8367 21.2854 17.8367C20.1585 17.8367 19.4872 18.5943 19.1924 19.3261C19.0846 19.5884 19.0581 19.9538 19.0581 20.3201V27.165H14.9784C14.9784 27.165 15.0322 16.0588 14.9784 14.9087H19.0581V16.6447C19.5995 15.8102 20.5691 14.6206 22.7349 14.6206Z" fill="#4489C9"/>
</svg>
