<svg width="160" height="60" viewBox="0 0 160 60" fill="none" xmlns="http://www.w3.org/2000/svg">
<g clip-path="url(#clip0)">
<path d="M8.5611 41.3627L10.9659 45.0822L32.8978 38.6052L36.0401 33.5391L8.5611 41.3627Z" fill="url(#paint0_linear)"/>
<path d="M5.51502 38.5411C5.38676 38.028 4.9058 37.7395 4.39277 37.8357L3.07814 38.1563C2.56512 38.2846 2.27654 38.7655 2.37273 39.2785C2.50099 39.7916 2.98195 40.0801 3.49498 39.9839L4.80961 39.6633C5.3547 39.5671 5.64327 39.0541 5.51502 38.5411Z" fill="url(#paint1_linear)"/>
<path d="M31.1343 23.4709L10.7094 28.4729L5.45089 29.7555C4.93787 29.8837 4.64929 30.3647 4.74548 30.8777C4.87374 31.3908 5.3547 31.6793 5.86773 31.5831L9.39478 30.7174C9.90781 30.5892 10.3888 30.8777 10.517 31.3908C10.6453 31.9038 10.3246 32.3847 9.81161 32.513L0.705401 34.8857C0.192375 35.014 -0.0962019 35.495 -9.47155e-06 36.008C0.128247 36.521 0.641273 36.8096 1.12224 36.6813L8.40079 34.7896C8.91382 34.6613 9.39478 34.9819 9.52304 35.495C9.65129 36.008 9.33065 36.489 8.81763 36.6172L6.92584 37.0982C6.41282 37.2264 6.12424 37.7074 6.22043 38.2204C6.34869 38.7334 6.82965 39.022 7.34268 38.9258L8.33666 38.6693L8.46492 41.3627L35.9118 33.5391L31.1343 23.4709Z" fill="url(#paint2_linear)"/>
<path d="M13.6594 32.9619L16.0321 36.8096L37.964 31.6153L41.5231 26.7094L13.6594 32.9619Z" fill="url(#paint3_linear)"/>
<path d="M41.523 26.7094L36.9058 16.5451L14.2364 20.7455C14.7495 20.6493 15.2304 21.002 15.3266 21.515C15.4228 22.028 15.0701 22.509 14.5571 22.6052L10.6132 23.3427C10.1002 23.4389 9.77951 23.9198 9.84364 24.4329C9.93983 24.9459 10.4208 25.2665 10.9338 25.2024L13.4669 24.7214L13.6272 32.994L41.523 26.7094Z" fill="url(#paint4_linear)"/>
<path d="M18.8537 24.5291L21.002 28.4409L43.4469 23.984L46.9098 19.2064L18.8537 24.5291Z" fill="url(#paint5_linear)"/>
<path d="M19.5591 19.7515L19.014 19.8477L18.8537 24.497L46.9098 19.2064L42.9339 8.68936L19.014 12.2805C18.501 12.3447 18.1483 12.8256 18.2124 13.3387C18.2765 13.8196 18.7254 14.1723 19.2064 14.1403L20.7455 13.9158C21.2585 13.8517 21.7395 14.2044 21.8036 14.7174C21.8677 15.2304 21.515 15.7114 21.002 15.7755L15.7114 16.5771C15.1984 16.6413 14.8457 17.1222 14.9098 17.6353C14.9739 18.1483 15.4549 18.501 15.9679 18.4369L19.2385 17.9238C19.7515 17.8597 20.2324 18.2124 20.2966 18.7254C20.4248 19.2064 20.0721 19.6874 19.5591 19.7515Z" fill="url(#paint6_linear)"/>
<path d="M15.5831 14.6853L16.513 14.525C17.026 14.4609 17.3787 13.9799 17.3146 13.4669C17.2504 12.9539 16.7695 12.6012 16.2564 12.6653L15.3266 12.8256C14.8136 12.8897 14.4608 13.3707 14.525 13.8837C14.6212 14.4288 15.1021 14.7815 15.5831 14.6853Z" fill="url(#paint7_linear)"/>
<path d="M35.4628 13.9158L37.3546 17.9559L59.9919 14.7816L63.7754 10.2285L35.4628 13.9158Z" fill="url(#paint8_linear)"/>
<path d="M29.7875 6.54108L28.4408 6.66934C27.9599 6.73347 27.5751 7.18237 27.6072 7.69539C27.6392 8.20842 28.1202 8.59319 28.6332 8.52906L29.9799 8.4008C30.4929 8.36874 30.8777 7.88778 30.8136 7.37475C30.7815 6.89379 30.3005 6.50902 29.7875 6.54108Z" fill="#58C2F0"/>
<path d="M36.521 9.6513L35.8155 9.74749L35.4628 13.9158L63.7755 10.2285L60.2163 0L30.4608 2.62926C29.9478 2.66132 29.563 3.14228 29.6272 3.65531C29.6592 4.16834 30.2364 4.6493 30.7494 4.58517L37.547 3.91182C38.06 3.87976 38.5089 4.26453 38.5731 4.77755C38.6051 5.29058 38.2204 5.73948 37.7073 5.80361L32.4809 6.31663C31.9679 6.3487 31.5831 6.82966 31.6472 7.34269C31.6793 7.85571 32.1602 8.24048 32.6733 8.17635L36.3286 7.82365C36.8416 7.79158 37.2905 8.14429 37.3546 8.65731C37.3867 9.17034 37.034 9.58717 36.521 9.6513Z" fill="#58C2F0"/>
<path d="M139.864 47.006C139.864 47.006 139.767 47.0381 139.639 47.1343C137.523 48.2244 129.924 51.6874 124.216 53.515C121.555 54.3807 118.862 55.1503 116.168 55.6954C113.475 56.2725 110.749 56.6894 107.992 56.8817C106.613 56.9779 105.266 57.0421 103.888 57.0421C102.509 57.0421 101.162 57.01 99.7835 56.9138C97.0581 56.7214 94.3647 56.3046 91.6713 55.6954C89.01 55.0862 86.3486 54.3166 83.7514 53.4188C82.4368 52.9699 81.1543 52.489 79.8396 51.9759C78.525 51.4629 77.2424 50.9178 75.8957 50.4048C70.541 48.4168 64.9939 46.9739 59.3506 46.1723C53.7394 45.4349 48.032 45.2104 42.3887 45.6272C36.7454 46.012 31.1342 47.0381 25.6833 48.513C22.9579 49.2826 20.2324 50.1803 17.6031 51.2064C14.9418 52.2645 12.3446 53.3868 9.84363 54.8296C11.1583 54.2846 12.4729 53.8036 13.8196 53.3547C15.1663 52.9058 16.4809 52.489 17.8276 52.1042C20.521 51.3347 23.2464 50.6613 25.9719 50.1162C28.6973 49.5711 31.4548 49.1222 34.2124 48.8016C36.9699 48.4809 39.7274 48.2565 42.4849 48.1924C47.9999 48.0641 53.515 48.3527 58.9338 49.2505C64.3526 50.1162 69.7074 51.527 74.9017 53.515L78.8456 55.0541C80.1603 55.5671 81.507 56.0481 82.8536 56.497C85.547 57.3948 88.3046 58.2284 91.1262 58.7735C96.7374 59.8958 102.509 60.1843 108.184 59.4789C111.006 59.1262 113.828 58.5811 116.585 57.8437C119.343 57.0741 122.036 56.1443 124.697 55.0862C127.84 53.8036 130.597 52.4569 133.515 50.8537C137.94 48.3848 139.864 47.006 139.864 47.006Z" fill="#3D3D3B"/>
<path d="M62.3647 23.2144L61.5951 25.8437H53.8356C53.1622 25.8437 52.5851 26.004 52.2003 26.3567C51.7835 26.6773 51.4949 27.1262 51.3667 27.6393C51.3025 27.8637 51.2705 28.0882 51.2705 28.3126C51.2705 28.5371 51.3346 28.7294 51.4628 28.8898C51.5911 29.0501 51.7835 29.2104 52.04 29.3066C52.2965 29.4028 52.6492 29.4669 53.0981 29.4669H56.6252C57.6512 29.4669 58.4528 29.5952 59.03 29.8517C59.6071 30.1082 60.024 30.4609 60.2805 30.8777C60.537 31.2946 60.6653 31.7755 60.6332 32.3206C60.6332 32.8657 60.537 33.4108 60.3767 33.9238C60.1843 34.5651 59.9278 35.1423 59.5751 35.6874C59.2544 36.2325 58.8055 36.6813 58.3246 37.0982C57.8115 37.483 57.2344 37.8036 56.561 38.028C55.8877 38.2525 55.1182 38.3487 54.2524 38.3487H45.8516L46.6212 35.7194H55.1502C55.8556 35.7194 56.4328 35.5591 56.8817 35.2064C57.3306 34.8537 57.6192 34.4048 57.7795 33.8597C57.8436 33.6353 57.8757 33.3787 57.8757 33.1543C57.8757 32.9298 57.8115 32.7054 57.6833 32.5451C57.555 32.3848 57.3626 32.2244 57.0741 32.1282C56.7855 32.0321 56.4328 31.9679 55.9518 31.9679H52.4248C51.3987 31.9679 50.6292 31.8397 50.052 31.5832C49.4749 31.3266 49.0901 31.006 48.8336 30.5892C48.5771 30.1723 48.4809 29.6914 48.4809 29.1783C48.4809 28.6653 48.5771 28.1202 48.7374 27.6072C48.9298 26.9659 49.1863 26.3888 49.5069 25.8757C49.8276 25.3306 50.2444 24.8818 50.7254 24.497C51.2063 24.1122 51.7835 23.7916 52.4568 23.5992C53.1302 23.3747 53.8677 23.2785 54.7013 23.2785H62.3647V23.2144Z" fill="#3D3D3B"/>
<path d="M69.2264 21.3867L67.7193 26.517H71.8877C73.8757 26.517 75.2544 26.9659 75.9598 27.8958C76.6652 28.7936 76.7935 30.0761 76.3125 31.7114L74.3566 38.3807H71.9518L73.9077 31.7114C74.1642 30.8136 74.1001 30.0761 73.6833 29.5952C73.2664 29.0821 72.4328 28.8256 71.1823 28.8256H67.0139L64.2243 38.3807H61.8837L66.8215 21.4188H69.2264V21.3867Z" fill="#3D3D3B"/>
<path d="M83.559 26.517L80.0961 38.3487H77.7233L81.1863 26.517H83.559ZM84.8736 22.0601L84.072 24.8176H81.6672L82.4688 22.0601H84.8736Z" fill="#3D3D3B"/>
<path d="M94.525 26.517C96.0961 26.517 97.1863 26.998 97.8276 27.992C98.4689 28.9859 98.5009 30.4609 97.8917 32.4489C97.3146 34.4368 96.4168 35.9439 95.1983 36.9058C94.012 37.8677 92.6011 38.3487 91.03 38.3487H85.7715L84.3927 43.0942H82.0841L85.4508 31.5831C85.9639 29.8517 86.7013 28.6012 87.6633 27.7675C88.6252 26.9338 89.8436 26.517 91.2865 26.517H94.525ZM86.5089 36.04H91.511C92.537 36.04 93.3707 35.7515 94.012 35.2064C94.6532 34.6613 95.1663 33.7314 95.519 32.4489C95.9037 31.1663 95.9358 30.2364 95.6152 29.6593C95.2945 29.0821 94.6532 28.7936 93.6272 28.7936H91.2865C90.3246 28.7936 89.555 29.018 89.042 29.4669C88.4969 29.9158 88.0801 30.6533 87.7915 31.6793L86.5089 36.04Z" fill="#3D3D3B"/>
<path d="M110.204 26.517C111.615 26.517 112.545 26.8376 112.962 27.4789C113.411 28.1202 113.443 29.018 113.122 30.1402C112.802 31.2304 112.256 32.0641 111.455 32.6733C110.685 33.2505 109.563 33.5711 108.12 33.5711H102.509L102.252 34.4368C102.124 34.9178 102.124 35.3026 102.317 35.6232C102.509 35.9439 102.926 36.0721 103.567 36.0721H110.814L110.14 38.3807H102.926C102.188 38.3807 101.579 38.2845 101.13 38.0921C100.681 37.8998 100.329 37.6112 100.104 37.2585C99.8797 36.9058 99.7515 36.4889 99.7515 36.04C99.7515 35.5591 99.8156 35.0461 99.9759 34.4689L101.162 30.4288C101.323 29.8837 101.547 29.3707 101.836 28.8897C102.124 28.4088 102.477 27.9919 102.926 27.6392C103.375 27.2865 103.856 27.03 104.433 26.8056C105.01 26.6132 105.651 26.517 106.421 26.517H110.204ZM103.054 31.6793H108.601C109.242 31.6793 109.723 31.5511 110.076 31.2946C110.397 31.038 110.653 30.6853 110.782 30.2685C110.91 29.8196 110.878 29.4669 110.685 29.1783C110.493 28.9218 110.108 28.7615 109.531 28.7615H105.715C105.042 28.7615 104.561 28.9218 104.176 29.2424C103.824 29.5631 103.567 29.9479 103.407 30.3968L103.054 31.6793Z" fill="#3D3D3B"/>
<path d="M124.794 26.517C126.204 26.517 127.134 26.8376 127.551 27.4789C128 28.1202 128.032 29.018 127.711 30.1402C127.391 31.2304 126.846 32.0641 126.044 32.6733C125.274 33.2505 124.152 33.5711 122.709 33.5711H117.098L116.842 34.4368C116.713 34.9178 116.713 35.3026 116.906 35.6232C117.098 35.9439 117.515 36.0721 118.156 36.0721H125.403L124.729 38.3807H117.483C116.745 38.3807 116.136 38.2845 115.687 38.0921C115.238 37.8998 114.886 37.6112 114.661 37.2585C114.437 36.9058 114.309 36.4889 114.309 36.04C114.309 35.5591 114.373 35.0461 114.533 34.4689L115.719 30.4288C115.88 29.8837 116.104 29.3707 116.393 28.8897C116.681 28.4088 117.034 27.9919 117.483 27.6392C117.932 27.2865 118.413 27.03 118.99 26.8056C119.567 26.6132 120.208 26.517 120.978 26.517H124.794ZM117.643 31.6793H123.19C123.832 31.6793 124.313 31.5511 124.665 31.2946C124.986 31.038 125.242 30.6853 125.371 30.2685C125.499 29.8196 125.467 29.4669 125.274 29.1783C125.082 28.9218 124.697 28.7615 124.12 28.7615H120.305C119.631 28.7615 119.15 28.9218 118.765 29.2424C118.413 29.5631 118.156 29.9479 117.996 30.3968L117.643 31.6793Z" fill="#3D3D3B"/>
<path d="M145.379 21.3867L141.916 33.2825C141.403 35.014 140.665 36.2645 139.703 37.0982C138.709 37.9318 137.523 38.3487 136.112 38.3487H132.842C131.27 38.3487 130.148 37.8677 129.507 36.9058C128.866 35.9439 128.834 34.4368 129.443 32.4489C130.02 30.4609 130.918 28.9539 132.136 27.992C133.323 27.03 134.733 26.5491 136.305 26.5491H141.531L143.038 21.4188H145.379V21.3867ZM136.08 36.0401C137.042 36.0401 137.779 35.8156 138.325 35.3667C138.87 34.9178 139.286 34.1803 139.575 33.1863L140.858 28.8256H135.856C134.83 28.8256 133.996 29.1142 133.355 29.6914C132.713 30.2685 132.2 31.1984 131.848 32.4809C131.463 33.7635 131.431 34.6934 131.751 35.2385C132.072 35.7835 132.713 36.0721 133.771 36.0721H136.08V36.0401Z" fill="#3D3D3B"/>
<path d="M160 26.517C160 26.517 154.966 34.0521 151.984 37.7715C147.303 43.6072 139.832 47.006 139.832 47.006C139.832 47.006 144.802 43.7675 147.174 40.529C149.226 37.7394 148.553 37.8998 148.425 37.8998C147.976 37.8998 147.655 37.8036 147.463 37.5791C147.238 37.3547 147.078 36.9699 147.046 36.4569L145.988 26.517H148.489L149.483 35.3346C149.483 35.5591 149.547 35.6873 149.611 35.7515C149.675 35.8156 149.836 35.8477 150.06 35.8477H150.477L157.114 26.5491H160V26.517Z" fill="#3D3D3B"/>
</g>
<defs>
<linearGradient id="paint0_linear" x1="8.51045" y1="40.3944" x2="36.395" y2="38.3679" gradientUnits="userSpaceOnUse">
<stop stop-color="#1D4162"/>
<stop offset="0.054591" stop-color="#234567"/>
<stop offset="0.9874" stop-color="#84A0D3"/>
</linearGradient>
<linearGradient id="paint1_linear" x1="1.67091" y1="39.647" x2="33.8248" y2="29.5747" gradientUnits="userSpaceOnUse">
<stop offset="0.0125628" stop-color="#4489C9"/>
<stop offset="0.2286" stop-color="#4286C4"/>
<stop offset="0.4662" stop-color="#3D7CB5"/>
<stop offset="0.7141" stop-color="#366C9D"/>
<stop offset="0.9676" stop-color="#2D5880"/>
<stop offset="1" stop-color="#2C557C"/>
</linearGradient>
<linearGradient id="paint2_linear" x1="1.09184" y1="37.7984" x2="33.2457" y2="27.7261" gradientUnits="userSpaceOnUse">
<stop offset="0.0125628" stop-color="#4489C9"/>
<stop offset="0.2286" stop-color="#4286C4"/>
<stop offset="0.4662" stop-color="#3D7CB5"/>
<stop offset="0.7141" stop-color="#366C9D"/>
<stop offset="0.9676" stop-color="#2D5880"/>
<stop offset="1" stop-color="#2C557C"/>
</linearGradient>
<linearGradient id="paint3_linear" x1="13.6507" y1="32.8402" x2="41.8161" y2="30.7956" gradientUnits="userSpaceOnUse">
<stop stop-color="#3B582F"/>
<stop offset="0.9824" stop-color="#BBD9A2"/>
</linearGradient>
<linearGradient id="paint4_linear" x1="9.85002" y1="24.7538" x2="41.5121" y2="24.7538" gradientUnits="userSpaceOnUse">
<stop offset="0.0175879" stop-color="#99C875"/>
<stop offset="0.1984" stop-color="#93C171"/>
<stop offset="0.458" stop-color="#83AD65"/>
<stop offset="0.7635" stop-color="#6A9053"/>
<stop offset="1" stop-color="#567744"/>
</linearGradient>
<linearGradient id="paint5_linear" x1="18.872" y1="24.9363" x2="47.1691" y2="22.8493" gradientUnits="userSpaceOnUse">
<stop stop-color="#654F44"/>
<stop offset="0.5276" stop-color="#9B8673"/>
<stop offset="0.9824" stop-color="#CAB99F"/>
</linearGradient>
<linearGradient id="paint6_linear" x1="15.6739" y1="18.9825" x2="45.0317" y2="13.6927" gradientUnits="userSpaceOnUse">
<stop offset="0.0175879" stop-color="#CAB99F"/>
<stop offset="0.2174" stop-color="#C2B198"/>
<stop offset="0.5042" stop-color="#AD9C85"/>
<stop offset="0.842" stop-color="#8B7C69"/>
<stop offset="1" stop-color="#7A6C5B"/>
</linearGradient>
<linearGradient id="paint7_linear" x1="16.3451" y1="13.6443" x2="43.3567" y2="10.3407" gradientUnits="userSpaceOnUse">
<stop offset="0.0175879" stop-color="#CAB99F"/>
<stop offset="0.2138" stop-color="#C2B298"/>
<stop offset="0.4955" stop-color="#AD9C85"/>
<stop offset="0.8271" stop-color="#8D7C68"/>
<stop offset="1" stop-color="#7B6B59"/>
</linearGradient>
<linearGradient id="paint8_linear" x1="35.5109" y1="14.949" x2="63.9462" y2="13.3367" gradientUnits="userSpaceOnUse">
<stop stop-color="#32626E"/>
<stop offset="0.0664289" stop-color="#3B6C79"/>
<stop offset="0.3514" stop-color="#6094A9"/>
<stop offset="0.6098" stop-color="#7FB6D1"/>
<stop offset="0.8305" stop-color="#93CDEC"/>
<stop offset="0.9874" stop-color="#9AD6F6"/>
</linearGradient>
<clipPath id="clip0">
<rect width="160" height="59.8637" fill="white"/>
</clipPath>
</defs>
</svg>
